<?xml version="1.0" encoding="UTF-8"?>
<svg id="Lag_1" data-name="Lag 1" xmlns="http://www.w3.org/2000/svg" viewBox="0 0 300 78">
  <defs>
    <style>
      .cls-1 {
        fill: #222;
        stroke-width: 0px;
      }
    </style>
  </defs>
  <path class="cls-1" d="M0,75.7V1.17h30.56c4.72,0,8.88.92,12.5,2.77,3.61,1.85,6.43,4.47,8.47,7.88,2.04,3.41,3.06,7.45,3.06,12.14v1.38c0,4.61-1.06,8.63-3.17,12.03-2.11,3.41-4.97,6.05-8.58,7.93-3.61,1.88-7.7,2.82-12.28,2.82H13.51v27.58H0ZM13.51,35.88h15.76c3.5,0,6.34-.96,8.53-2.88,2.18-1.92,3.27-4.54,3.27-7.88v-1.07c0-3.34-1.09-5.94-3.27-7.83-2.18-1.88-5.02-2.82-8.53-2.82h-15.76v22.47h0ZM117.32,75.7V23h12.65v7.14h1.82c.93-1.92,2.59-3.73,4.99-5.43,2.39-1.7,6.02-2.56,10.89-2.56,4.15,0,7.77.92,10.88,2.77,3.11,1.85,5.52,4.42,7.24,7.72,1.72,3.3,2.57,7.15,2.57,11.55v31.52h-12.87v-30.56c0-4.12-1.02-7.19-3.06-9.21-2.04-2.02-4.95-3.03-8.74-3.03-4.22,0-7.52,1.4-9.92,4.21-2.4,2.8-3.59,6.76-3.59,11.87v26.73h-12.87,0ZM197.32,75.7c-3.43,0-6.2-1.05-8.31-3.14-2.11-2.09-3.16-4.92-3.16-8.46v-30.45h-12.84v-10.65h10.51c1.29,0,2.33-1.03,2.33-2.32V6.28h12.87v16.72h14.91v10.65h-14.91v28.22c0,2.13,1.04,3.19,3.11,3.19h10.4v10.65h-14.91ZM229.92,16.61c-2.36,0-4.34-.76-5.95-2.29-1.61-1.53-2.41-3.53-2.41-6.02s.8-4.49,2.41-6.02C225.58.76,227.56,0,229.92,0s4.45.77,6.06,2.29c1.61,1.53,2.41,3.53,2.41,6.02s-.8,4.49-2.41,6.02c-1.61,1.53-3.63,2.29-6.06,2.29ZM223.6,75.7V23h12.87v52.71h-12.87ZM295.71,65.16c-2,0-3-1.07-3-3.19v-20.23c0-6.53-2.02-11.54-6.06-15.01-4.04-3.48-9.56-5.22-16.57-5.22-4.5,0-8.35.69-11.53,2.08-3.18,1.38-5.72,3.21-7.61,5.48-1.75,2.1-3.05,4.38-3.92,6.84l12.01,3.38c.63-2.01,1.67-3.68,3.11-4.99,1.72-1.56,4.32-2.34,7.83-2.34s6.08.83,7.72,2.5c1.64,1.67,2.47,3.82,2.47,6.44v3.09h-15.01c-3.93,0-7.45.6-10.56,1.81-3.11,1.21-5.54,3.03-7.29,5.48s-2.63,5.48-2.63,9.1.87,6.59,2.63,9.1c1.75,2.52,4.13,4.44,7.13,5.75,3,1.31,6.4,1.97,10.19,1.97s6.65-.53,8.79-1.6c2.14-1.07,3.75-2.29,4.83-3.67,1.07-1.38,1.75-2.54,2.04-3.46h2.04v.21c0,2.13.84,3.83,2.52,5.11,1.68,1.28,3.8,1.92,6.38,1.92h8.79v-10.54h-4.29ZM280.16,54.62c0,3.69-1.23,6.64-3.7,8.84-2.47,2.2-5.67,3.3-9.6,3.3-3,0-5.29-.62-6.86-1.87-1.58-1.24-2.36-2.89-2.36-4.95s.75-3.64,2.25-4.74c1.5-1.1,3.57-1.65,6.22-1.65h14.05v1.07h0ZM105.96,34.39c-2.15-4.05-5.13-7.2-8.96-9.48-3.83-2.27-8.35-3.41-13.57-3.41s-9.92,1.12-13.89,3.35c-3.97,2.24-7.06,5.4-9.28,9.48-2.22,4.08-3.32,8.86-3.32,14.32v1.28c0,5.54,1.11,10.35,3.32,14.43s5.34,7.24,9.38,9.48c4.04,2.24,8.7,3.35,14,3.35,4.86,0,8.86-.76,12.01-2.29,3.14-1.53,5.67-3.37,7.56-5.54,1.76-2.01,3.11-3.91,4.1-5.7l-10.97-4.69c-.9,1.61-2.11,3.1-3.64,4.48-1.9,1.7-4.77,2.56-8.63,2.56s-7.13-1.19-9.81-3.57c-2.68-2.38-4.09-5.52-4.24-9.42h39.14v-4.47c0-5.39-1.07-10.11-3.22-14.16h0ZM70.13,43.44c.5-3.27,1.88-5.87,4.13-7.83,2.25-1.95,5.27-2.93,9.06-2.93s6.61.98,8.9,2.93c2.29,1.95,3.57,4.56,3.86,7.83h-25.95,0Z"/>
</svg>